<svg width="30" height="26" viewBox="0 0 30 26" fill="none" xmlns="http://www.w3.org/2000/svg">
<path d="M17.6663 3.50037C17.8873 3.50037 18.0998 3.58823 18.2561 3.74451C18.4122 3.90076 18.5002 4.11251 18.5002 4.33337C18.5002 4.55423 18.4122 4.76599 18.2561 4.92224C18.0998 5.07852 17.8873 5.16638 17.6663 5.16638H10.3196C9.9358 5.16573 9.56136 5.28576 9.24927 5.50916C8.93675 5.73286 8.70233 6.04933 8.57935 6.41345L8.57837 6.41736L7.85962 8.60095C7.80168 8.77322 7.68855 8.92151 7.53833 9.0238C7.38786 9.12613 7.20736 9.17684 7.02563 9.16736L7.01294 9.16638H4.33325C3.84717 9.16638 3.38114 9.35988 3.03735 9.70349C2.69354 10.0473 2.50024 10.5141 2.50024 11.0004V21.6664C2.50024 22.1526 2.69354 22.6194 3.03735 22.9633C3.38114 23.3069 3.84717 23.5004 4.33325 23.5004H23.0002C23.4863 23.5003 23.9524 23.3069 24.2961 22.9633C24.64 22.6194 24.8333 22.1526 24.8333 21.6664V12.3334C24.8333 12.1124 24.9212 11.9008 25.0774 11.7445C25.2336 11.5883 25.4454 11.5005 25.6663 11.5004H25.6672C25.7803 11.5002 25.8924 11.5223 25.9963 11.5668C26.1001 11.6112 26.1938 11.6765 26.2717 11.7582C26.3497 11.84 26.4101 11.9374 26.4495 12.0433C26.479 12.1228 26.4959 12.2061 26.5002 12.2904V21.7338C26.5001 22.6619 26.1311 23.5521 25.4749 24.2084C24.8186 24.8647 23.9284 25.2337 23.0002 25.2338H4.33325C3.40509 25.2338 2.515 24.8646 1.85864 24.2084C1.20236 23.5521 0.833356 22.6619 0.833252 21.7338V11.0668C0.833252 10.1385 1.20229 9.24854 1.85864 8.59216C2.51502 7.93579 3.40499 7.56677 4.33325 7.56677H6.40454L6.51587 7.21912L6.94067 5.89197C7.17282 5.19659 7.61777 4.59159 8.21216 4.16248C8.73245 3.78691 9.34455 3.56216 9.98071 3.51111L10.2542 3.50037H17.6663ZM13.6663 10.1664C14.9481 10.1664 16.1778 10.676 17.0842 11.5824C17.9907 12.4888 18.5002 13.7185 18.5002 15.0004C18.5002 15.956 18.2166 16.8903 17.6858 17.6849C17.1547 18.4798 16.399 19.0994 15.5159 19.4652C14.6328 19.8309 13.6613 19.927 12.7239 19.7406C11.7863 19.5541 10.9252 19.0933 10.2493 18.4174C9.57331 17.7414 9.11252 16.8803 8.92603 15.9427C8.73961 15.0053 8.8357 14.0338 9.20142 13.1508C9.56724 12.2676 10.1869 11.5119 10.9817 10.9808C11.7763 10.45 12.7106 10.1664 13.6663 10.1664ZM14.8782 12.0746C14.2997 11.835 13.6632 11.7718 13.0491 11.8939C12.4348 12.0161 11.8699 12.3182 11.427 12.7611C10.9843 13.2039 10.683 13.7681 10.5608 14.3822C10.4386 14.9965 10.5008 15.6336 10.7405 16.2123C10.9802 16.7908 11.3868 17.2853 11.9075 17.6332C12.4281 17.981 13.0401 18.1663 13.6663 18.1664C14.506 18.1664 15.3117 17.8333 15.9055 17.2396C16.4993 16.6458 16.8332 15.8401 16.8333 15.0004C16.8333 14.3741 16.648 13.7613 16.3 13.2406C15.9521 12.7198 15.4568 12.3143 14.8782 12.0746ZM25.6663 0.833374C25.8873 0.833374 26.0998 0.921233 26.2561 1.07751C26.4122 1.2337 26.5002 1.44556 26.5002 1.66638V3.50037H28.3333C28.5543 3.50037 28.7658 3.58823 28.9221 3.74451C29.0784 3.90079 29.1663 4.11236 29.1663 4.33337C29.1663 4.55439 29.0784 4.76596 28.9221 4.92224C28.7658 5.07852 28.5543 5.16638 28.3333 5.16638H26.5002V7.00037C26.5002 7.22119 26.4122 7.43305 26.2561 7.58923C26.0998 7.74551 25.8873 7.83337 25.6663 7.83337C25.4454 7.83329 25.2336 7.74544 25.0774 7.58923C24.9212 7.43303 24.8333 7.22126 24.8333 7.00037V5.16638H23.0002C22.7792 5.16638 22.5667 5.07852 22.4104 4.92224C22.2543 4.76599 22.1663 4.55424 22.1663 4.33337C22.1663 4.11251 22.2543 3.90075 22.4104 3.74451C22.5667 3.58823 22.7792 3.50037 23.0002 3.50037H24.8333V1.66638C24.8333 1.44548 24.9212 1.23372 25.0774 1.07751C25.2336 0.921312 25.4454 0.83346 25.6663 0.833374Z" fill="white" stroke="white"/>
</svg>
