<svg width="34" height="35" viewBox="0 0 34 35" fill="none" xmlns="http://www.w3.org/2000/svg">
<circle cx="17" cy="17.932" r="17" fill="white"/>
<path d="M23.165 18.1001C22.7618 18.5743 22.0167 18.5778 21.5466 18.1076L16.827 13.3882C16.3568 12.918 16.3603 12.1729 16.8345 11.7698L18.1303 10.6681C19.0617 9.87621 20.1975 9.35117 21.4286 9.14345L22.1917 9.0147C22.9124 8.8931 23.6702 9.14483 24.2108 9.68541L25.2494 10.7241C25.79 11.2647 26.0417 12.0224 25.9202 12.7431L25.7914 13.5062C25.5837 14.7372 25.0587 15.8729 24.2667 16.8044L23.165 18.1001Z" fill="white" stroke="#767676"/>
<path d="M24.8948 10.0372L27 7.93201L24.8948 10.0372Z" fill="white"/>
<path d="M24.8948 10.0372L27 7.93201" stroke="#767676" stroke-linecap="round" stroke-linejoin="round"/>
<path d="M7 27.9317L9.10526 25.8265L7 27.9317Z" fill="white"/>
<path d="M7 27.9317L9.10526 25.8265" stroke="#767676" stroke-linecap="round" stroke-linejoin="round"/>
<path d="M10.8399 17.7645C11.2431 17.2903 11.9882 17.2868 12.4584 17.757L17.1779 22.4765C17.6482 22.9466 17.6447 23.6917 17.1705 24.0949L15.8747 25.1965C14.9432 25.9885 13.8074 26.5135 12.5764 26.7212L11.8132 26.8499C11.0926 26.9715 10.3348 26.7198 9.79421 26.1792L8.75549 25.1406C8.2149 24.6 7.96317 23.8422 8.08477 23.1216L8.21353 22.3585C8.42125 21.1275 8.9463 19.9917 9.73825 19.0603L10.8399 17.7645Z" fill="white" stroke="#767676"/>
<path d="M13.3164 18.4591L15.4217 16.3539L13.3164 18.4591ZM16.4743 21.6169L18.5796 19.5117L16.4743 21.6169Z" fill="white"/>
<path d="M13.3164 18.4591L15.4217 16.3539M16.4743 21.6169L18.5796 19.5117" stroke="#767676" stroke-linecap="round" stroke-linejoin="round"/>
</svg>
