<svg width="16" height="21" viewBox="0 0 16 21" fill="none" xmlns="http://www.w3.org/2000/svg">
<path d="M8 1C9.19347 1 10.3377 1.47445 11.1816 2.31836C12.0256 3.16227 12.5 4.30653 12.5 5.5V8H13C13.663 8 14.2987 8.26358 14.7676 8.73242C15.2364 9.20126 15.5 9.83696 15.5 10.5V17.5C15.5 18.163 15.2364 18.7987 14.7676 19.2676C14.2987 19.7364 13.663 20 13 20H3C2.33696 20 1.70126 19.7364 1.23242 19.2676C0.763581 18.7987 0.5 18.163 0.5 17.5V10.5C0.5 9.83696 0.763581 9.20126 1.23242 8.73242C1.70126 8.26358 2.33696 8 3 8H3.5V5.5C3.5 4.30653 3.97445 3.16227 4.81836 2.31836C5.66227 1.47445 6.80653 1 8 1ZM3 9C2.60217 9 2.22076 9.15815 1.93945 9.43945C1.65815 9.72076 1.5 10.1022 1.5 10.5V17.5C1.5 17.8978 1.65815 18.2792 1.93945 18.5605C2.22076 18.8419 2.60218 19 3 19H13C13.3978 19 13.7792 18.8419 14.0605 18.5605C14.3419 18.2792 14.5 17.8978 14.5 17.5V10.5C14.5 10.1022 14.3419 9.72076 14.0605 9.43945C13.7792 9.15815 13.3978 9 13 9H3ZM8 2C7.07174 2 6.18177 2.36901 5.52539 3.02539C4.86901 3.68177 4.5 4.57174 4.5 5.5V8H11.5V5.5C11.5 4.57174 11.131 3.68177 10.4746 3.02539C9.81823 2.36901 8.92826 2 8 2Z" fill="black" stroke="white"/>
</svg>
