<svg width="34" height="35" viewBox="0 0 34 35" fill="none" xmlns="http://www.w3.org/2000/svg">
<circle cx="17" cy="17.2025" r="17" fill="white"/>
<path d="M17 27.2025C22.5228 27.2025 27 22.7254 27 17.2025C27 11.6797 22.5228 7.20251 17 7.20251C11.4772 7.20251 7 11.6797 7 17.2025C7 22.7254 11.4772 27.2025 17 27.2025Z" fill="white" stroke="#767676"/>
<path d="M14 18.2025V13.6025C14 13.2303 14 13.0441 14.0489 12.8935C14.1479 12.5891 14.3865 12.3504 14.691 12.2515C14.8416 12.2025 15.0277 12.2025 15.4 12.2025H18C19.6569 12.2025 21 13.5457 21 15.2025C21 16.8594 19.6569 18.2025 18 18.2025H14ZM14 18.2025V23.2025" stroke="#767676" stroke-linecap="round" stroke-linejoin="round"/>
</svg>
