<svg width="34" height="35" viewBox="0 0 34 35" fill="none" xmlns="http://www.w3.org/2000/svg">
<circle cx="17" cy="17.932" r="17" fill="white"/>
<path d="M17 8.43201C22.2464 8.43201 26.5 12.6856 26.5 17.932C26.5 23.1784 22.2464 27.432 17 27.432C11.7536 27.432 7.5 23.1784 7.5 17.932C7.5 12.6856 11.7536 8.43201 17 8.43201ZM9 17.932C9 21.8862 11.8872 25.1526 15.6553 25.7982L16.248 25.8998L16.2402 25.2982C16.1795 21.0322 13.2703 17.432 9.5 17.432H9V17.932ZM24.5 17.432C20.7297 17.432 17.8205 21.0322 17.7598 25.2982L17.752 25.8998L18.3447 25.7982C22.1128 25.1526 25 21.8862 25 17.932V17.432H24.5ZM17 16.182C16.0332 16.182 15.25 16.9652 15.25 17.932C15.25 18.8988 16.0332 19.682 17 19.682C17.9668 19.682 18.75 18.8988 18.75 17.932C18.75 16.9652 17.9668 16.182 17 16.182ZM17 9.93201C13.5235 9.93201 10.5938 12.1718 9.48828 15.264L9.24902 15.932H24.751L24.5117 15.264C23.4062 12.1718 20.4765 9.93201 17 9.93201Z" fill="white" stroke="#767676"/>
</svg>
