<svg width="34" height="35" viewBox="0 0 34 35" fill="none" xmlns="http://www.w3.org/2000/svg">
<circle cx="17" cy="17.932" r="17" fill="white"/>
<path d="M8.33301 15.1H9.66602C10.0778 15.1 10.499 15.4867 10.499 16.0814V22.5082H23.501V16.0814C23.501 15.4888 23.9224 15.1 24.334 15.1H25.667C26.0789 15.1 26.4999 15.4867 26.5 16.0814V24.2347C26.5005 24.3223 26.4621 24.4782 26.3506 24.6908C26.2435 24.8947 26.0887 25.1132 25.9082 25.3138C25.7273 25.5149 25.5326 25.6854 25.3545 25.8011C25.1645 25.9246 25.0457 25.9515 25.0039 25.9515H22.5039V26.8217C22.5038 27.2099 22.2317 27.4318 22.0039 27.432C21.7761 27.432 21.503 27.2082 21.5029 26.8217V25.9515H12.501V26.8217C12.5009 27.21 12.2289 27.432 12.001 27.432C11.7732 27.4318 11.501 27.208 11.501 26.8217V25.9515H9C8.95797 25.9513 8.83917 25.9245 8.64941 25.8011C8.47126 25.6853 8.27687 25.515 8.0957 25.3138C7.91485 25.1129 7.75917 24.8935 7.65137 24.6888C7.53914 24.4757 7.5 24.3181 7.5 24.2289V16.0814C7.50005 15.4888 7.92138 15.1 8.33301 15.1ZM11.667 8.43201H22.3359C23.1167 8.43201 23.8369 9.15342 23.8369 10.1556V12.601C23.7664 12.6099 23.7321 12.6176 23.6709 12.6176C22.2416 12.6176 21.1709 13.8891 21.1709 15.3412V20.0267H12.833V15.3402C12.8328 13.8883 11.7621 12.6176 10.333 12.6176C10.2723 12.6175 10.2365 12.6099 10.165 12.601V10.1566C10.1658 9.15367 10.8862 8.43201 11.667 8.43201Z" fill="white" stroke="#767676"/>
</svg>
