<svg width="34" height="35" viewBox="0 0 34 35" fill="none" xmlns="http://www.w3.org/2000/svg">
<circle cx="17" cy="17.932" r="17" fill="white"/>
<path d="M17.1387 8.43298C19.5814 8.47163 21.9326 9.60409 23.6895 11.6195L23.7334 11.6703C25.4277 13.6511 26.4211 16.3099 26.4951 19.1185C26.5698 21.952 25.7039 24.702 24.0879 26.808L24.0859 26.8109L23.9521 26.9789C23.8332 27.128 23.693 27.2419 23.543 27.3177C23.3934 27.3933 23.2352 27.4312 23.0781 27.431C22.9212 27.4308 22.7636 27.3926 22.6143 27.3168C22.4644 27.2406 22.3238 27.1263 22.2051 26.9769V26.976L21.9521 26.6752C21.3473 25.9914 20.636 25.4352 19.8506 25.0375C18.9524 24.5827 17.9783 24.3461 16.9912 24.3461C16.0041 24.3461 15.03 24.5827 14.1318 25.0375C13.2342 25.4921 12.4331 26.1535 11.7773 26.976L11.7764 26.9779C11.6587 27.1262 11.5197 27.2395 11.3711 27.3158C11.2228 27.3919 11.0661 27.4307 10.9102 27.432C10.754 27.4333 10.5963 27.3972 10.4473 27.3236C10.2981 27.2499 10.1583 27.1387 10.0391 26.9926L10.0293 26.9808L9.94141 26.8715L9.92773 26.8529L9.91211 26.8363V26.8353C9.90994 26.8326 9.9073 26.8306 9.90332 26.8256C9.90027 26.8217 9.89618 26.8166 9.8916 26.8109H9.89258C8.25231 24.6595 7.39297 21.8447 7.51074 18.9603C7.6286 16.0758 8.71369 13.3695 10.5186 11.4095C12.3213 9.45204 14.6964 8.39444 17.1387 8.43298ZM21.707 12.7455C21.4144 12.7455 21.1458 12.8641 20.9414 13.057L20.8574 13.1439L19.9141 14.2328L19.9062 14.2426C19.7064 14.4853 19.605 14.7964 19.6084 15.1068C19.6099 15.2427 19.6327 15.3778 19.6738 15.5072C19.6404 15.5033 19.6066 15.4984 19.5723 15.4984C19.4167 15.4984 19.2685 15.5403 19.1387 15.6136L19.0352 15.683L15.8857 17.9691L15.8711 17.9799L15.8574 17.9916C15.4876 18.3037 15.2535 18.7575 15.1855 19.2445C15.1178 19.7313 15.2175 20.2349 15.4736 20.6488C15.7307 21.0642 16.1342 21.3676 16.6104 21.4623C17.089 21.5574 17.5731 21.4274 17.9531 21.1215L17.959 21.1166C18.1139 20.9876 18.2476 20.833 18.3555 20.6605L18.3633 20.6478L18.3701 20.6342L20.3516 17.0004L20.3506 16.9994C20.4684 16.7963 20.5119 16.5584 20.4795 16.3304C20.4788 16.3258 20.4773 16.3214 20.4766 16.3168C20.5673 16.3429 20.6619 16.3593 20.7598 16.3607C21.0885 16.3656 21.3901 16.2215 21.6045 15.9867L21.6133 15.9769L22.5566 14.8881C22.7662 14.6462 22.875 14.3316 22.875 14.016C22.875 13.7004 22.7662 13.3858 22.5566 13.1439C22.3451 12.8999 22.0416 12.7455 21.707 12.7455ZM10.3154 18.1908C9.98092 18.1908 9.67734 18.3452 9.46582 18.5892C9.25623 18.8311 9.14845 19.1458 9.14844 19.4613C9.14844 19.7769 9.25623 20.0915 9.46582 20.3334C9.67734 20.5775 9.9809 20.7318 10.3154 20.7318H11.6504C11.9849 20.7318 12.2885 20.5775 12.5 20.3334C12.7096 20.0915 12.8174 19.7769 12.8174 19.4613C12.8174 19.1458 12.7096 18.8311 12.5 18.5892C12.2885 18.3452 11.9849 18.1909 11.6504 18.1908H10.3154ZM22.3271 18.1908C21.9926 18.1908 21.6891 18.3452 21.4775 18.5892C21.268 18.8311 21.1602 19.1458 21.1602 19.4613C21.1602 19.7769 21.2679 20.0915 21.4775 20.3334C21.6891 20.5775 21.9926 20.7318 22.3271 20.7318H23.6621C23.9966 20.7317 24.3002 20.5774 24.5117 20.3334C24.7213 20.0915 24.8291 19.7768 24.8291 19.4613C24.8291 19.1458 24.7213 18.8311 24.5117 18.5892C24.3002 18.3452 23.9966 18.1909 23.6621 18.1908H22.3271ZM12.2705 12.7455C11.9359 12.7455 11.6315 12.8998 11.4199 13.1439C11.2104 13.3858 11.1025 13.7005 11.1025 14.016C11.1025 14.3315 11.2104 14.6462 11.4199 14.8881H11.4209L12.3643 15.9769C12.5758 16.2209 12.8794 16.3744 13.2139 16.3744C13.5483 16.3744 13.852 16.2209 14.0635 15.9769C14.2729 15.7351 14.3809 15.4203 14.3809 15.1049C14.3808 14.7895 14.2729 14.4746 14.0635 14.2328L13.1201 13.1439L13.0361 13.057C12.8318 12.864 12.5632 12.7456 12.2705 12.7455ZM16.9883 10.4906C16.6538 10.4907 16.3501 10.644 16.1387 10.8881C15.9291 11.1299 15.8213 11.4446 15.8213 11.7601V13.3002C15.8213 13.6156 15.9292 13.9304 16.1387 14.1722C16.3501 14.4163 16.6538 14.5706 16.9883 14.5707C17.3229 14.5707 17.6273 14.4164 17.8389 14.1722C18.0483 13.9304 18.1562 13.6156 18.1562 13.3002V11.7601C18.1562 11.4447 18.0484 11.1299 17.8389 10.8881C17.6273 10.6439 17.3229 10.4906 16.9883 10.4906Z" fill="white" stroke="#767676"/>
</svg>
